%TF.GenerationSoftware,Altium Limited,Altium Designer,25.8.1 (18)*%
G04 Layer_Physical_Order=4*
G04 Layer_Color=16711680*
%FSLAX45Y45*%
%MOMM*%
%TF.SameCoordinates,7E127C55-AB0B-4862-B774-839BFC621986*%
%TF.FilePolarity,Positive*%
%TF.FileFunction,Copper,L4,Bot,Signal*%
%TF.Part,Single*%
G01*
G75*
%TA.AperFunction,ComponentPad*%
%ADD22C,1.37000*%
%ADD23R,1.37000X1.37000*%
%TA.AperFunction,ViaPad*%
%ADD24C,1.27000*%
G36*
X2565398Y7061197D02*
X2565398Y7061197D01*
X2591203Y7061197D01*
X2642370Y7054462D01*
X2692221Y7041105D01*
X2739901Y7021355D01*
X2784596Y6995551D01*
X2825540Y6964134D01*
X2862034Y6927641D01*
X2893451Y6886697D01*
X2919256Y6842003D01*
X2939006Y6794322D01*
X2952363Y6744472D01*
X2959100Y6693304D01*
X2959099Y6667500D01*
X2959100Y4483100D01*
X2959099Y4483100D01*
X2959100Y4463086D01*
X2951291Y4423828D01*
X2935973Y4386848D01*
X2913735Y4353567D01*
X2885432Y4325264D01*
X2852151Y4303026D01*
X2815171Y4287708D01*
X2775913Y4279899D01*
X2755899Y4279900D01*
X2572037Y4279900D01*
X2535233Y4287221D01*
X2500564Y4301581D01*
X2469363Y4322429D01*
X2442829Y4348963D01*
X2421981Y4380164D01*
X2407621Y4414833D01*
X2400300Y4451637D01*
Y4470400D01*
Y6515099D01*
X2400300Y6515100D01*
X2400297Y6515102D01*
X2399699Y6533372D01*
X2394929Y6569607D01*
X2385471Y6604909D01*
X2371485Y6638674D01*
X2353211Y6670325D01*
X2330963Y6699320D01*
X2305121Y6725163D01*
X2276126Y6747412D01*
X2244475Y6765686D01*
X2210710Y6779672D01*
X2175408Y6789131D01*
X2139173Y6793901D01*
X2120900Y6794499D01*
X1079500Y6794500D01*
X1066869D01*
X1043530Y6804167D01*
X1025667Y6822030D01*
X1016000Y6845369D01*
Y6972298D01*
X1016000Y6972300D01*
X1016724Y6984700D01*
X1019416Y6998230D01*
X1026117Y7014409D01*
X1035846Y7028970D01*
X1048228Y7041353D01*
X1062789Y7051082D01*
X1078968Y7057784D01*
X1096144Y7061200D01*
X1104899Y7061199D01*
X2565396Y7061200D01*
X2565398Y7061197D01*
D02*
G37*
G36*
X304799Y6756399D02*
X609601Y6756398D01*
X609602Y6756397D01*
X609602Y6756397D01*
X625862D01*
X657758Y6750053D01*
X687804Y6737608D01*
X714844Y6719540D01*
X737840Y6696544D01*
X755907Y6669504D01*
X768353Y6639458D01*
X774697Y6607562D01*
X774697Y6591302D01*
X774697Y6527825D01*
X774701Y6134098D01*
X775496Y6117913D01*
X781809Y6086170D01*
X794195Y6056269D01*
X812176Y6029358D01*
X835062Y6006473D01*
X861972Y5988492D01*
X891874Y5976107D01*
X923617Y5969794D01*
X939800Y5969000D01*
X1917697D01*
X1917698Y5968997D01*
X1917699Y5968997D01*
X1932709Y5968999D01*
X1962153Y5963144D01*
X1989889Y5951656D01*
X2014850Y5934978D01*
X2036078Y5913751D01*
X2052756Y5888789D01*
X2064244Y5861053D01*
X2070099Y5831609D01*
X2070097Y5816599D01*
X2070100Y4901933D01*
Y4267200D01*
X2070807Y4245602D01*
X2076444Y4202779D01*
X2087622Y4161058D01*
X2104151Y4121154D01*
X2125747Y4083748D01*
X2152041Y4049481D01*
X2182582Y4018940D01*
X2216849Y3992646D01*
X2254255Y3971050D01*
X2294159Y3954522D01*
X2335880Y3943343D01*
X2378703Y3937706D01*
X2400299Y3937000D01*
X2946398D01*
X2968825Y3937733D01*
X3013296Y3943586D01*
X3056622Y3955194D01*
X3098062Y3972358D01*
X3136907Y3994784D01*
X3172493Y4022089D01*
X3204209Y4053806D01*
X3231514Y4089391D01*
X3253941Y4128236D01*
X3271105Y4169676D01*
X3282713Y4213002D01*
X3288566Y4257473D01*
X3289299Y4279899D01*
X3289300Y5422912D01*
X3289300Y5422912D01*
Y5422913D01*
X3290026Y5435313D01*
X3292717Y5448842D01*
X3299419Y5465019D01*
X3309149Y5479578D01*
X3321531Y5491959D01*
X3336092Y5501686D01*
X3352270Y5508386D01*
X3369444Y5511801D01*
X3378200Y5511799D01*
X3619495Y5511800D01*
X3619499Y5511795D01*
Y5511795D01*
X3658221Y5511796D01*
X3735114Y5502570D01*
X3810359Y5484249D01*
X3882886Y5457094D01*
X3951661Y5421490D01*
X4015704Y5377946D01*
X4074103Y5327082D01*
X4126026Y5269622D01*
X4170732Y5206386D01*
X4207586Y5138273D01*
X4236062Y5066254D01*
X4255755Y4991355D01*
X4261069Y4953000D01*
X4261069Y4953000D01*
X4261069D01*
X4267200Y4946869D01*
Y4267200D01*
X4267195Y4267198D01*
X4267195Y4232259D01*
X4260346Y4162718D01*
X4246714Y4094183D01*
X4226430Y4027314D01*
X4199689Y3962755D01*
X4166749Y3901128D01*
X4127927Y3843027D01*
X4083597Y3789010D01*
X4034186Y3739599D01*
X3980170Y3695269D01*
X3922069Y3656447D01*
X3860443Y3623507D01*
X3795884Y3596766D01*
X3729015Y3576482D01*
X3660480Y3562849D01*
X3590939Y3556000D01*
X3556000Y3556000D01*
X1856507D01*
X1785532Y3565344D01*
X1716385Y3583872D01*
X1650248Y3611267D01*
X1588252Y3647060D01*
X1531458Y3690639D01*
X1480839Y3741258D01*
X1437260Y3798052D01*
X1401467Y3860048D01*
X1374072Y3926185D01*
X1355544Y3995332D01*
X1346200Y4066307D01*
Y4102100D01*
Y4647789D01*
X1346200Y4647789D01*
X1346200Y4659750D01*
Y5359399D01*
X1346200D01*
X1346195Y5359403D01*
X1345278Y5378070D01*
X1337994Y5414697D01*
X1323704Y5449199D01*
X1302957Y5480250D01*
X1276551Y5506657D01*
X1245501Y5527404D01*
X1210999Y5541696D01*
X1174373Y5548982D01*
X1155701Y5549899D01*
X901699Y5549900D01*
X878392D01*
X832176Y5555985D01*
X787150Y5568050D01*
X744084Y5585888D01*
X703714Y5609196D01*
X666733Y5637573D01*
X633771Y5670535D01*
X605395Y5707516D01*
X582087Y5747886D01*
X564249Y5790952D01*
X552184Y5835978D01*
X546100Y5882194D01*
Y5905501D01*
Y6476999D01*
X546100Y6477000D01*
X546099Y6477000D01*
X546096Y6477022D01*
X545123Y6486909D01*
X544418Y6488612D01*
X537539Y6505220D01*
X523525Y6519234D01*
X505214Y6526819D01*
X495305Y6527795D01*
X317501Y6527798D01*
X317499Y6527798D01*
X307492D01*
X287863Y6531703D01*
X269373Y6539362D01*
X252733Y6550481D01*
X238581Y6564633D01*
X227463Y6581274D01*
X219804Y6599764D01*
X215900Y6619393D01*
X215900Y6629400D01*
Y6667499D01*
X215900Y6667500D01*
X216624Y6679900D01*
X219316Y6693430D01*
X226017Y6709609D01*
X235746Y6724170D01*
X248129Y6736553D01*
X262689Y6746282D01*
X278868Y6752983D01*
X296043Y6756399D01*
X304799Y6756399D01*
D02*
G37*
%LPC*%
G36*
X335280Y6721171D02*
Y6647581D01*
X408870D01*
X406835Y6663036D01*
X398909Y6682171D01*
X386301Y6698602D01*
X369869Y6711211D01*
X350734Y6719137D01*
X335280Y6721171D01*
D02*
G37*
G36*
X325120D02*
X309666Y6719137D01*
X290531Y6711211D01*
X274099Y6698602D01*
X261491Y6682171D01*
X253565Y6663036D01*
X251530Y6647581D01*
X325120D01*
Y6721171D01*
D02*
G37*
G36*
X408870Y6637421D02*
X335280D01*
Y6563831D01*
X350734Y6565866D01*
X369869Y6573792D01*
X386301Y6586400D01*
X398909Y6602832D01*
X406835Y6621967D01*
X408870Y6637421D01*
D02*
G37*
G36*
X325120D02*
X251530D01*
X253565Y6621967D01*
X261491Y6602832D01*
X274099Y6586400D01*
X290531Y6573792D01*
X309666Y6565866D01*
X325120Y6563831D01*
Y6637421D01*
D02*
G37*
%LPD*%
D22*
X330200Y5626501D02*
D03*
Y5880501D02*
D03*
Y6134501D02*
D03*
Y6388501D02*
D03*
Y6642501D02*
D03*
Y6896501D02*
D03*
Y7150501D02*
D03*
X5156200Y7556500D02*
D03*
X330200Y4864501D02*
D03*
Y4356501D02*
D03*
Y3848501D02*
D03*
Y4102501D02*
D03*
Y4610501D02*
D03*
X5156200Y4102500D02*
D03*
Y4356500D02*
D03*
Y4610500D02*
D03*
Y4864500D02*
D03*
Y5118500D02*
D03*
Y5372500D02*
D03*
Y5626500D02*
D03*
Y6286500D02*
D03*
Y6540500D02*
D03*
Y6794500D02*
D03*
Y7048500D02*
D03*
Y7302500D02*
D03*
Y7810500D02*
D03*
Y8064500D02*
D03*
Y8318500D02*
D03*
D23*
X330200Y7404501D02*
D03*
Y5118501D02*
D03*
X5156200Y3848500D02*
D03*
Y6032500D02*
D03*
D24*
X1854200Y4813300D02*
D03*
X1689100Y6921500D02*
D03*
X1130300Y6908800D02*
D03*
X1549400Y5664200D02*
D03*
X1955800Y5791200D02*
D03*
X2692400Y5410200D02*
D03*
Y4394200D02*
D03*
X3949700Y4597400D02*
D03*
X3771900Y4419600D02*
D03*
X4102100D02*
D03*
X1752600Y5283200D02*
D03*
X3390900Y5384800D02*
D03*
X1612900Y4521200D02*
D03*
%TF.MD5,b84da9c7e4f70a8f47fac7e4aa21d09d*%
M02*
