%TF.GenerationSoftware,Altium Limited,Altium Designer,25.8.1 (18)*%
G04 Layer_Physical_Order=3*
G04 Layer_Color=16440176*
%FSLAX45Y45*%
%MOMM*%
%TF.SameCoordinates,7E127C55-AB0B-4862-B774-839BFC621986*%
%TF.FilePolarity,Positive*%
%TF.FileFunction,Copper,L3,Inr,Signal*%
%TF.Part,Single*%
G01*
G75*
%TA.AperFunction,ComponentPad*%
%ADD22C,1.37000*%
%ADD23R,1.37000X1.37000*%
%TA.AperFunction,ViaPad*%
%ADD24C,1.27000*%
D22*
X330200Y5626501D02*
D03*
Y5880501D02*
D03*
Y6134501D02*
D03*
Y6388501D02*
D03*
Y6642501D02*
D03*
Y6896501D02*
D03*
Y7150501D02*
D03*
X5156200Y7556500D02*
D03*
X330200Y4864501D02*
D03*
Y4356501D02*
D03*
Y3848501D02*
D03*
Y4102501D02*
D03*
Y4610501D02*
D03*
X5156200Y4102500D02*
D03*
Y4356500D02*
D03*
Y4610500D02*
D03*
Y4864500D02*
D03*
Y5118500D02*
D03*
Y5372500D02*
D03*
Y5626500D02*
D03*
Y6286500D02*
D03*
Y6540500D02*
D03*
Y6794500D02*
D03*
Y7048500D02*
D03*
Y7302500D02*
D03*
Y7810500D02*
D03*
Y8064500D02*
D03*
Y8318500D02*
D03*
D23*
X330200Y7404501D02*
D03*
Y5118501D02*
D03*
X5156200Y3848500D02*
D03*
Y6032500D02*
D03*
D24*
X1854200Y4813300D02*
D03*
X1689100Y6921500D02*
D03*
X1130300Y6908800D02*
D03*
X1549400Y5664200D02*
D03*
X1955800Y5791200D02*
D03*
X2692400Y5410200D02*
D03*
Y4394200D02*
D03*
X3949700Y4597400D02*
D03*
X3771900Y4419600D02*
D03*
X4102100D02*
D03*
X1752600Y5283200D02*
D03*
X3390900Y5384800D02*
D03*
X1612900Y4521200D02*
D03*
%TF.MD5,46563c8b0a099df2daf28c84d085715e*%
M02*
