%TF.GenerationSoftware,Altium Limited,Altium Designer,25.8.1 (18)*%
G04 Layer_Physical_Order=2*
G04 Layer_Color=36540*
%FSLAX45Y45*%
%MOMM*%
%TF.SameCoordinates,7E127C55-AB0B-4862-B774-839BFC621986*%
%TF.FilePolarity,Positive*%
%TF.FileFunction,Copper,L2,Inr,Signal*%
%TF.Part,Single*%
G01*
G75*
%TA.AperFunction,ComponentPad*%
%ADD22C,1.37000*%
%ADD23R,1.37000X1.37000*%
%TA.AperFunction,ViaPad*%
%ADD24C,1.27000*%
G36*
X4673600Y7670799D02*
X5194299Y7670800D01*
X5194299Y7670798D01*
X5194300Y7670799D01*
X5194311D01*
X5206004Y7669964D01*
X5216526Y7667871D01*
X5230394Y7662127D01*
X5242874Y7653788D01*
X5253488Y7643174D01*
X5261827Y7630694D01*
X5267571Y7616827D01*
X5270499Y7602105D01*
X5270499Y7594600D01*
X5270500Y7531100D01*
X5270498Y7531099D01*
X5270499Y7522343D01*
X5267082Y7505168D01*
X5260381Y7488990D01*
X5250652Y7474429D01*
X5238270Y7462047D01*
X5223710Y7452318D01*
X5207531Y7445616D01*
X5190356Y7442200D01*
X5181600Y7442200D01*
X4836390D01*
X4836388Y7442197D01*
X4812963Y7441046D01*
X4767013Y7431906D01*
X4723729Y7413978D01*
X4684775Y7387949D01*
X4651648Y7354822D01*
X4625619Y7315868D01*
X4607690Y7272584D01*
X4598550Y7226634D01*
X4597399Y7203209D01*
X4597400Y6642100D01*
X4597400Y5994400D01*
Y5793005D01*
X4597392Y5793001D01*
X4597394Y5750612D01*
X4589086Y5666242D01*
X4572548Y5583093D01*
X4547940Y5501965D01*
X4515497Y5423640D01*
X4475534Y5348873D01*
X4428433Y5278383D01*
X4374650Y5212849D01*
X4344676Y5182876D01*
X3692245Y4530445D01*
X3692243Y4530440D01*
X3673564Y4510821D01*
X3639206Y4468956D01*
X3609117Y4423924D01*
X3583586Y4376160D01*
X3562861Y4326123D01*
X3547139Y4274296D01*
X3536573Y4221178D01*
X3531265Y4167279D01*
X3530600Y4140200D01*
X3530593Y4140193D01*
X3530593Y4115221D01*
X3524074Y4065705D01*
X3511148Y4017464D01*
X3492035Y3971322D01*
X3467064Y3928070D01*
X3436660Y3888447D01*
X3401345Y3853132D01*
X3361722Y3822729D01*
X3318470Y3797757D01*
X3272329Y3778645D01*
X3224087Y3765719D01*
X3174571Y3759200D01*
X3149599Y3759200D01*
X2298693D01*
X2277429Y3759199D01*
X2235717Y3767495D01*
X2196426Y3783770D01*
X2161065Y3807397D01*
X2130993Y3837470D01*
X2107366Y3872832D01*
X2091093Y3912124D01*
X2082798Y3953835D01*
X2082800Y3975100D01*
Y4039357D01*
X2082800Y4051315D01*
X2082801Y4051320D01*
X2082800Y4051321D01*
X2082800Y4065074D01*
X2088168Y4092062D01*
X2098699Y4117485D01*
X2113988Y4140364D01*
X2133447Y4159821D01*
X2156328Y4175107D01*
X2181752Y4185636D01*
X2208741Y4191001D01*
X2222500Y4190999D01*
X2325938Y4191000D01*
X2338077Y4190999D01*
X2338077Y4191000D01*
X2371020Y4191807D01*
X2436596Y4198263D01*
X2501224Y4211117D01*
X2564281Y4230244D01*
X2625159Y4255461D01*
X2683271Y4286523D01*
X2738060Y4323133D01*
X2788995Y4364937D01*
X2812863Y4387663D01*
X4051453Y5626254D01*
X4051454Y5626254D01*
X4051452Y5626257D01*
X4065662Y5641932D01*
X4089155Y5677083D01*
X4105336Y5716142D01*
X4113584Y5757609D01*
X4114621Y5778748D01*
X4114621Y5778748D01*
X4114614Y5778752D01*
X4113577Y5799881D01*
X4105331Y5841345D01*
X4089155Y5880403D01*
X4065669Y5915555D01*
X4035776Y5945449D01*
X4000625Y5968936D01*
X3961567Y5985114D01*
X3920104Y5993361D01*
X3898966Y5994399D01*
X660400Y5994400D01*
X482600D01*
X482593Y5994392D01*
X472684Y5993417D01*
X454374Y5985832D01*
X440360Y5971819D01*
X432776Y5953509D01*
X431800Y5943600D01*
X431799Y5867399D01*
X431792Y5867393D01*
X431193Y5858412D01*
X426659Y5840992D01*
X418949Y5824725D01*
X408334Y5810187D01*
X395189Y5797889D01*
X379977Y5788265D01*
X363234Y5781653D01*
X345550Y5778289D01*
X335752D01*
X334165Y5778315D01*
X332578Y5778368D01*
X330992Y5778447D01*
X330200Y5778500D01*
X330199Y5778500D01*
X329407Y5778447D01*
X327820Y5778368D01*
X326232Y5778315D01*
X324643Y5778289D01*
X314846D01*
X297161Y5781654D01*
X280417Y5788265D01*
X265204Y5797890D01*
X252058Y5810189D01*
X241442Y5824729D01*
X233732Y5840996D01*
X229198Y5858418D01*
X228600Y5867399D01*
Y5971819D01*
X228600Y6146799D01*
X228600D01*
X229323Y6159201D01*
X232012Y6172732D01*
X238713Y6188913D01*
X248441Y6203475D01*
X260825Y6215858D01*
X275386Y6225587D01*
X291567Y6232287D01*
X308743Y6235701D01*
X317500Y6235699D01*
X469905Y6235700D01*
X469905Y6235699D01*
X477337Y6236430D01*
X481574Y6238185D01*
X481576Y6238185D01*
X481669Y6238224D01*
X491073Y6242118D01*
X501584Y6252631D01*
X507270Y6266366D01*
X507999Y6273800D01*
X508000Y6312637D01*
X508000Y6324599D01*
X508001Y6324599D01*
X508001Y6324600D01*
X508000Y6324601D01*
X507998Y6345410D01*
X513428Y6386675D01*
X524198Y6426879D01*
X540124Y6465332D01*
X560933Y6501378D01*
X586270Y6534398D01*
X615701Y6563829D01*
X648721Y6589166D01*
X684767Y6609975D01*
X723220Y6625901D01*
X763424Y6636672D01*
X804689Y6642101D01*
X825500Y6642099D01*
X4153657Y6642100D01*
X4165598Y6642100D01*
X4165599Y6642099D01*
X4165599Y6642100D01*
X4183151Y6642962D01*
X4217583Y6649811D01*
X4250016Y6663245D01*
X4279206Y6682749D01*
X4304029Y6707572D01*
X4323533Y6736762D01*
X4336967Y6769195D01*
X4343816Y6803626D01*
X4344678Y6821179D01*
X4344680Y7329917D01*
X4344680Y7341879D01*
X4344680Y7341879D01*
X4344680Y7341880D01*
X4344680Y7341881D01*
X4344679Y7363438D01*
X4350307Y7406187D01*
X4361466Y7447835D01*
X4377966Y7487670D01*
X4399524Y7525011D01*
X4425772Y7559218D01*
X4456261Y7589707D01*
X4490468Y7615955D01*
X4527809Y7637513D01*
X4567644Y7654013D01*
X4609293Y7665172D01*
X4652041Y7670800D01*
X4673600Y7670799D01*
D02*
G37*
%LPC*%
G36*
X5161280Y7635170D02*
Y7561580D01*
X5234870D01*
X5232835Y7577034D01*
X5224909Y7596169D01*
X5212301Y7612601D01*
X5195869Y7625209D01*
X5176734Y7633135D01*
X5161280Y7635170D01*
D02*
G37*
G36*
X5151120D02*
X5135666Y7633135D01*
X5116531Y7625209D01*
X5100099Y7612601D01*
X5087491Y7596169D01*
X5079565Y7577034D01*
X5077530Y7561580D01*
X5151120D01*
Y7635170D01*
D02*
G37*
G36*
X5234870Y7551420D02*
X5161280D01*
Y7477830D01*
X5176734Y7479865D01*
X5195869Y7487791D01*
X5212301Y7500399D01*
X5224909Y7516831D01*
X5232835Y7535966D01*
X5234870Y7551420D01*
D02*
G37*
G36*
X5151120D02*
X5077530D01*
X5079565Y7535966D01*
X5087491Y7516831D01*
X5100099Y7500399D01*
X5116531Y7487791D01*
X5135666Y7479865D01*
X5151120Y7477830D01*
Y7551420D01*
D02*
G37*
G36*
X335280Y6213171D02*
Y6139581D01*
X408870D01*
X406835Y6155036D01*
X398909Y6174171D01*
X386301Y6190602D01*
X369869Y6203211D01*
X350734Y6211137D01*
X335280Y6213171D01*
D02*
G37*
G36*
X325120D02*
X309666Y6211137D01*
X290531Y6203211D01*
X274099Y6190602D01*
X261491Y6174171D01*
X253565Y6155036D01*
X251530Y6139581D01*
X325120D01*
Y6213171D01*
D02*
G37*
G36*
X408870Y6129421D02*
X335280D01*
Y6055831D01*
X350734Y6057866D01*
X369869Y6065792D01*
X386301Y6078400D01*
X398909Y6094832D01*
X406835Y6113967D01*
X408870Y6129421D01*
D02*
G37*
G36*
X325120D02*
X251530D01*
X253565Y6113967D01*
X261491Y6094832D01*
X274099Y6078400D01*
X290531Y6065792D01*
X309666Y6057866D01*
X325120Y6055831D01*
Y6129421D01*
D02*
G37*
G36*
X335280Y5959171D02*
Y5885581D01*
X408870D01*
X406835Y5901036D01*
X398909Y5920171D01*
X386301Y5936602D01*
X369869Y5949211D01*
X350734Y5957137D01*
X335280Y5959171D01*
D02*
G37*
G36*
X325120D02*
X309666Y5957137D01*
X290531Y5949211D01*
X274099Y5936602D01*
X261491Y5920171D01*
X253565Y5901036D01*
X251530Y5885581D01*
X325120D01*
Y5959171D01*
D02*
G37*
G36*
X408870Y5875421D02*
X335280D01*
Y5801831D01*
X350734Y5803866D01*
X369869Y5811792D01*
X386301Y5824400D01*
X398909Y5840832D01*
X406835Y5859967D01*
X408870Y5875421D01*
D02*
G37*
G36*
X325120D02*
X251530D01*
X253565Y5859967D01*
X261491Y5840832D01*
X274099Y5824400D01*
X290531Y5811792D01*
X309666Y5803866D01*
X325120Y5801831D01*
Y5875421D01*
D02*
G37*
%LPD*%
D22*
X330200Y5626501D02*
D03*
Y5880501D02*
D03*
Y6134501D02*
D03*
Y6388501D02*
D03*
Y6642501D02*
D03*
Y6896501D02*
D03*
Y7150501D02*
D03*
X5156200Y7556500D02*
D03*
X330200Y4864501D02*
D03*
Y4356501D02*
D03*
Y3848501D02*
D03*
Y4102501D02*
D03*
Y4610501D02*
D03*
X5156200Y4102500D02*
D03*
Y4356500D02*
D03*
Y4610500D02*
D03*
Y4864500D02*
D03*
Y5118500D02*
D03*
Y5372500D02*
D03*
Y5626500D02*
D03*
Y6286500D02*
D03*
Y6540500D02*
D03*
Y6794500D02*
D03*
Y7048500D02*
D03*
Y7302500D02*
D03*
Y7810500D02*
D03*
Y8064500D02*
D03*
Y8318500D02*
D03*
D23*
X330200Y7404501D02*
D03*
Y5118501D02*
D03*
X5156200Y3848500D02*
D03*
Y6032500D02*
D03*
D24*
X1854200Y4813300D02*
D03*
X1689100Y6921500D02*
D03*
X1130300Y6908800D02*
D03*
X1549400Y5664200D02*
D03*
X1955800Y5791200D02*
D03*
X2692400Y5410200D02*
D03*
Y4394200D02*
D03*
X3949700Y4597400D02*
D03*
X2997200Y4343400D02*
D03*
X3771900Y4419600D02*
D03*
X4102100D02*
D03*
X1752600Y5283200D02*
D03*
X3390900Y5384800D02*
D03*
X2209800Y4025900D02*
D03*
X3111500Y3898900D02*
D03*
X1689100Y6299200D02*
D03*
X1130300Y6286500D02*
D03*
X850900Y6489700D02*
D03*
X3238500Y4191000D02*
D03*
X1612900Y4521200D02*
D03*
X4383100Y5637200D02*
D03*
%TF.MD5,765e7ec93aa396f543678c0076cb7711*%
M02*
